<?xml version="1.0" encoding="utf-8"?>
<svg xmlns="http://www.w3.org/2000/svg" xmlns:xlink="http://www.w3.org/1999/xlink" width="1650" height="1050" viewBox="0 0 6600 4200">
<defs>
  <clipPath id="clip510">
    <rect x="0" y="0" width="6600" height="4200"/>
  </clipPath>
</defs>
<path clip-path="url(#clip510)" d="M0 4200 L6600 4200 L6600 0 L0 0  Z" fill="#ffffff" fill-rule="evenodd" fill-opacity="1"/>
<defs>
  <clipPath id="clip511">
    <rect x="1320" y="0" width="4621" height="4200"/>
  </clipPath>
</defs>
<path clip-path="url(#clip510)" d="M259.22 4000.91 L6552.76 4000.91 L6552.76 47.2441 L259.22 47.2441  Z" fill="#ffffff" fill-rule="evenodd" fill-opacity="1"/>
<defs>
  <clipPath id="clip512">
    <rect x="259" y="47" width="6295" height="3955"/>
  </clipPath>
</defs>
<polyline clip-path="url(#clip512)" style="stroke:#000000; stroke-linecap:round; stroke-linejoin:round; stroke-width:2; stroke-opacity:0.1; fill:none" points="259.22,4000.91 259.22,47.2441 "/>
<polyline clip-path="url(#clip512)" style="stroke:#000000; stroke-linecap:round; stroke-linejoin:round; stroke-width:2; stroke-opacity:0.1; fill:none" points="1517.93,4000.91 1517.93,47.2441 "/>
<polyline clip-path="url(#clip512)" style="stroke:#000000; stroke-linecap:round; stroke-linejoin:round; stroke-width:2; stroke-opacity:0.1; fill:none" points="2776.63,4000.91 2776.63,47.2441 "/>
<polyline clip-path="url(#clip512)" style="stroke:#000000; stroke-linecap:round; stroke-linejoin:round; stroke-width:2; stroke-opacity:0.1; fill:none" points="4035.34,4000.91 4035.34,47.2441 "/>
<polyline clip-path="url(#clip512)" style="stroke:#000000; stroke-linecap:round; stroke-linejoin:round; stroke-width:2; stroke-opacity:0.1; fill:none" points="5294.05,4000.91 5294.05,47.2441 "/>
<polyline clip-path="url(#clip512)" style="stroke:#000000; stroke-linecap:round; stroke-linejoin:round; stroke-width:2; stroke-opacity:0.1; fill:none" points="6552.76,4000.91 6552.76,47.2441 "/>
<polyline clip-path="url(#clip510)" style="stroke:#000000; stroke-linecap:round; stroke-linejoin:round; stroke-width:4; stroke-opacity:1; fill:none" points="259.22,4000.91 6552.76,4000.91 "/>
<polyline clip-path="url(#clip510)" style="stroke:#000000; stroke-linecap:round; stroke-linejoin:round; stroke-width:4; stroke-opacity:1; fill:none" points="259.22,4000.91 259.22,3982.01 "/>
<polyline clip-path="url(#clip510)" style="stroke:#000000; stroke-linecap:round; stroke-linejoin:round; stroke-width:4; stroke-opacity:1; fill:none" points="1517.93,4000.91 1517.93,3982.01 "/>
<polyline clip-path="url(#clip510)" style="stroke:#000000; stroke-linecap:round; stroke-linejoin:round; stroke-width:4; stroke-opacity:1; fill:none" points="2776.63,4000.91 2776.63,3982.01 "/>
<polyline clip-path="url(#clip510)" style="stroke:#000000; stroke-linecap:round; stroke-linejoin:round; stroke-width:4; stroke-opacity:1; fill:none" points="4035.34,4000.91 4035.34,3982.01 "/>
<polyline clip-path="url(#clip510)" style="stroke:#000000; stroke-linecap:round; stroke-linejoin:round; stroke-width:4; stroke-opacity:1; fill:none" points="5294.05,4000.91 5294.05,3982.01 "/>
<polyline clip-path="url(#clip510)" style="stroke:#000000; stroke-linecap:round; stroke-linejoin:round; stroke-width:4; stroke-opacity:1; fill:none" points="6552.76,4000.91 6552.76,3982.01 "/>
<path clip-path="url(#clip510)" d="M259.22 4065.43 Q255.609 4065.43 253.78 4068.99 Q251.975 4072.54 251.975 4079.67 Q251.975 4086.77 253.78 4090.34 Q255.609 4093.88 259.22 4093.88 Q262.854 4093.88 264.66 4090.34 Q266.489 4086.77 266.489 4079.67 Q266.489 4072.54 264.66 4068.99 Q262.854 4065.43 259.22 4065.43 M259.22 4061.73 Q265.03 4061.73 268.086 4066.33 Q271.165 4070.92 271.165 4079.67 Q271.165 4088.39 268.086 4093 Q265.03 4097.58 259.22 4097.58 Q253.41 4097.58 250.331 4093 Q247.276 4088.39 247.276 4079.67 Q247.276 4070.92 250.331 4066.33 Q253.41 4061.73 259.22 4061.73 Z" fill="#000000" fill-rule="nonzero" fill-opacity="1" /><path clip-path="url(#clip510)" d="M1512.58 4092.98 L1528.9 4092.98 L1528.9 4096.91 L1506.96 4096.91 L1506.96 4092.98 Q1509.62 4090.22 1514.2 4085.59 Q1518.81 4080.94 1519.99 4079.6 Q1522.23 4077.07 1523.11 4075.34 Q1524.02 4073.58 1524.02 4071.89 Q1524.02 4069.13 1522.07 4067.4 Q1520.15 4065.66 1517.05 4065.66 Q1514.85 4065.66 1512.39 4066.42 Q1509.96 4067.19 1507.19 4068.74 L1507.19 4064.02 Q1510.01 4062.88 1512.46 4062.3 Q1514.92 4061.73 1516.96 4061.73 Q1522.33 4061.73 1525.52 4064.41 Q1528.71 4067.1 1528.71 4071.59 Q1528.71 4073.72 1527.9 4075.64 Q1527.12 4077.54 1525.01 4080.13 Q1524.43 4080.8 1521.33 4084.02 Q1518.23 4087.21 1512.58 4092.98 Z" fill="#000000" fill-rule="nonzero" fill-opacity="1" /><path clip-path="url(#clip510)" d="M2779.64 4066.42 L2767.84 4084.87 L2779.64 4084.87 L2779.64 4066.42 M2778.42 4062.35 L2784.3 4062.35 L2784.3 4084.87 L2789.23 4084.87 L2789.23 4088.76 L2784.3 4088.76 L2784.3 4096.91 L2779.64 4096.91 L2779.64 4088.76 L2764.04 4088.76 L2764.04 4084.25 L2778.42 4062.35 Z" fill="#000000" fill-rule="nonzero" fill-opacity="1" /><path clip-path="url(#clip510)" d="M4035.75 4077.77 Q4032.6 4077.77 4030.75 4079.92 Q4028.92 4082.07 4028.92 4085.82 Q4028.92 4089.55 4030.75 4091.73 Q4032.6 4093.88 4035.75 4093.88 Q4038.89 4093.88 4040.72 4091.73 Q4042.58 4089.55 4042.58 4085.82 Q4042.58 4082.07 4040.72 4079.92 Q4038.89 4077.77 4035.75 4077.77 M4045.03 4063.11 L4045.03 4067.37 Q4043.27 4066.54 4041.46 4066.1 Q4039.68 4065.66 4037.92 4065.66 Q4033.29 4065.66 4030.84 4068.79 Q4028.41 4071.91 4028.06 4078.23 Q4029.43 4076.22 4031.49 4075.15 Q4033.55 4074.06 4036.02 4074.06 Q4041.23 4074.06 4044.24 4077.23 Q4047.27 4080.38 4047.27 4085.82 Q4047.27 4091.15 4044.13 4094.36 Q4040.98 4097.58 4035.75 4097.58 Q4029.75 4097.58 4026.58 4093 Q4023.41 4088.39 4023.41 4079.67 Q4023.41 4071.47 4027.3 4066.61 Q4031.19 4061.73 4037.74 4061.73 Q4039.5 4061.73 4041.28 4062.07 Q4043.08 4062.42 4045.03 4063.11 Z" fill="#000000" fill-rule="nonzero" fill-opacity="1" /><path clip-path="url(#clip510)" d="M5294.05 4080.5 Q5290.72 4080.5 5288.79 4082.28 Q5286.9 4084.06 5286.9 4087.19 Q5286.9 4090.31 5288.79 4092.1 Q5290.72 4093.88 5294.05 4093.88 Q5297.38 4093.88 5299.3 4092.1 Q5301.22 4090.29 5301.22 4087.19 Q5301.22 4084.06 5299.3 4082.28 Q5297.41 4080.5 5294.05 4080.5 M5289.37 4078.51 Q5286.36 4077.77 5284.67 4075.71 Q5283.01 4073.65 5283.01 4070.68 Q5283.01 4066.54 5285.95 4064.13 Q5288.91 4061.73 5294.05 4061.73 Q5299.21 4061.73 5302.15 4064.13 Q5305.09 4066.54 5305.09 4070.68 Q5305.09 4073.65 5303.4 4075.71 Q5301.73 4077.77 5298.75 4078.51 Q5302.13 4079.3 5304 4081.59 Q5305.9 4083.88 5305.9 4087.19 Q5305.9 4092.21 5302.82 4094.9 Q5299.77 4097.58 5294.05 4097.58 Q5288.33 4097.58 5285.25 4094.9 Q5282.2 4092.21 5282.2 4087.19 Q5282.2 4083.88 5284.1 4081.59 Q5285.99 4079.3 5289.37 4078.51 M5287.66 4071.12 Q5287.66 4073.81 5289.33 4075.31 Q5291.02 4076.82 5294.05 4076.82 Q5297.06 4076.82 5298.75 4075.31 Q5300.46 4073.81 5300.46 4071.12 Q5300.46 4068.44 5298.75 4066.93 Q5297.06 4065.43 5294.05 4065.43 Q5291.02 4065.43 5289.33 4066.93 Q5287.66 4068.44 5287.66 4071.12 Z" fill="#000000" fill-rule="nonzero" fill-opacity="1" /><path clip-path="url(#clip510)" d="M6527.44 4092.98 L6535.08 4092.98 L6535.08 4066.61 L6526.77 4068.28 L6526.77 4064.02 L6535.04 4062.35 L6539.71 4062.35 L6539.71 4092.98 L6547.35 4092.98 L6547.35 4096.91 L6527.44 4096.91 L6527.44 4092.98 Z" fill="#000000" fill-rule="nonzero" fill-opacity="1" /><path clip-path="url(#clip510)" d="M6566.8 4065.43 Q6563.18 4065.43 6561.36 4068.99 Q6559.55 4072.54 6559.55 4079.67 Q6559.55 4086.77 6561.36 4090.34 Q6563.18 4093.88 6566.8 4093.88 Q6570.43 4093.88 6572.23 4090.34 Q6574.06 4086.77 6574.06 4079.67 Q6574.06 4072.54 6572.23 4068.99 Q6570.43 4065.43 6566.8 4065.43 M6566.8 4061.73 Q6572.61 4061.73 6575.66 4066.33 Q6578.74 4070.92 6578.74 4079.67 Q6578.74 4088.39 6575.66 4093 Q6572.61 4097.58 6566.8 4097.58 Q6560.99 4097.58 6557.91 4093 Q6554.85 4088.39 6554.85 4079.67 Q6554.85 4070.92 6557.91 4066.33 Q6560.99 4061.73 6566.8 4061.73 Z" fill="#000000" fill-rule="nonzero" fill-opacity="1" /><path clip-path="url(#clip510)" d="M2938.17 4167.59 L2929.45 4191.24 L2946.93 4191.24 L2938.17 4167.59 M2934.54 4161.25 L2941.83 4161.25 L2959.94 4208.77 L2953.26 4208.77 L2948.93 4196.58 L2927.51 4196.58 L2923.18 4208.77 L2916.4 4208.77 L2934.54 4161.25 Z" fill="#000000" fill-rule="nonzero" fill-opacity="1" /><path clip-path="url(#clip510)" d="M2996.26 4187.26 L2996.26 4208.77 L2990.4 4208.77 L2990.4 4187.45 Q2990.4 4182.39 2988.43 4179.87 Q2986.46 4177.36 2982.51 4177.36 Q2977.77 4177.36 2975.03 4180.38 Q2972.29 4183.41 2972.29 4188.63 L2972.29 4208.77 L2966.4 4208.77 L2966.4 4173.13 L2972.29 4173.13 L2972.29 4178.66 Q2974.39 4175.45 2977.23 4173.86 Q2980.09 4172.27 2983.81 4172.27 Q2989.96 4172.27 2993.11 4176.09 Q2996.26 4179.87 2996.26 4187.26 Z" fill="#000000" fill-rule="nonzero" fill-opacity="1" /><path clip-path="url(#clip510)" d="M3037.57 4187.26 L3037.57 4208.77 L3031.72 4208.77 L3031.72 4187.45 Q3031.72 4182.39 3029.74 4179.87 Q3027.77 4177.36 3023.82 4177.36 Q3019.08 4177.36 3016.34 4180.38 Q3013.61 4183.41 3013.61 4188.63 L3013.61 4208.77 L3007.72 4208.77 L3007.72 4173.13 L3013.61 4173.13 L3013.61 4178.66 Q3015.71 4175.45 3018.54 4173.86 Q3021.4 4172.27 3025.13 4172.27 Q3031.27 4172.27 3034.42 4176.09 Q3037.57 4179.87 3037.57 4187.26 Z" fill="#000000" fill-rule="nonzero" fill-opacity="1" /><path clip-path="url(#clip510)" d="M3048.65 4194.71 L3048.65 4173.13 L3054.51 4173.13 L3054.51 4194.48 Q3054.51 4199.54 3056.48 4202.09 Q3058.45 4204.61 3062.4 4204.61 Q3067.14 4204.61 3069.88 4201.58 Q3072.65 4198.56 3072.65 4193.34 L3072.65 4173.13 L3078.5 4173.13 L3078.5 4208.77 L3072.65 4208.77 L3072.65 4203.3 Q3070.52 4206.55 3067.68 4208.14 Q3064.88 4209.7 3061.16 4209.7 Q3055.01 4209.7 3051.83 4205.88 Q3048.65 4202.06 3048.65 4194.71 M3063.39 4172.27 L3063.39 4172.27 Z" fill="#000000" fill-rule="nonzero" fill-opacity="1" /><path clip-path="url(#clip510)" d="M3106.77 4190.86 Q3099.67 4190.86 3096.93 4192.48 Q3094.2 4194.1 3094.2 4198.02 Q3094.2 4201.14 3096.23 4202.98 Q3098.3 4204.8 3101.83 4204.8 Q3106.7 4204.8 3109.63 4201.36 Q3112.59 4197.89 3112.59 4192.16 L3112.59 4190.86 L3106.77 4190.86 M3118.45 4188.44 L3118.45 4208.77 L3112.59 4208.77 L3112.59 4203.36 Q3110.59 4206.61 3107.6 4208.17 Q3104.6 4209.7 3100.27 4209.7 Q3094.8 4209.7 3091.55 4206.64 Q3088.34 4203.55 3088.34 4198.4 Q3088.34 4192.38 3092.35 4189.33 Q3096.39 4186.27 3104.38 4186.27 L3112.59 4186.27 L3112.59 4185.7 Q3112.59 4181.66 3109.92 4179.46 Q3107.28 4177.23 3102.47 4177.23 Q3099.42 4177.23 3096.52 4177.96 Q3093.62 4178.7 3090.95 4180.16 L3090.95 4174.75 Q3094.16 4173.51 3097.19 4172.9 Q3100.21 4172.27 3103.08 4172.27 Q3110.81 4172.27 3114.63 4176.28 Q3118.45 4180.29 3118.45 4188.44 Z" fill="#000000" fill-rule="nonzero" fill-opacity="1" /><path clip-path="url(#clip510)" d="M3130.51 4159.25 L3136.37 4159.25 L3136.37 4208.77 L3130.51 4208.77 L3130.51 4159.25 Z" fill="#000000" fill-rule="nonzero" fill-opacity="1" /><path clip-path="url(#clip510)" d="M3169.6 4161.25 L3179.18 4161.25 L3191.3 4193.59 L3203.49 4161.25 L3213.08 4161.25 L3213.08 4208.77 L3206.81 4208.77 L3206.81 4167.05 L3194.55 4199.64 L3188.09 4199.64 L3175.84 4167.05 L3175.84 4208.77 L3169.6 4208.77 L3169.6 4161.25 Z" fill="#000000" fill-rule="nonzero" fill-opacity="1" /><path clip-path="url(#clip510)" d="M3241.78 4190.86 Q3234.69 4190.86 3231.95 4192.48 Q3229.21 4194.1 3229.21 4198.02 Q3229.21 4201.14 3231.25 4202.98 Q3233.32 4204.8 3236.85 4204.8 Q3241.72 4204.8 3244.65 4201.36 Q3247.61 4197.89 3247.61 4192.16 L3247.61 4190.86 L3241.78 4190.86 M3253.47 4188.44 L3253.47 4208.77 L3247.61 4208.77 L3247.61 4203.36 Q3245.6 4206.61 3242.61 4208.17 Q3239.62 4209.7 3235.29 4209.7 Q3229.82 4209.7 3226.57 4206.64 Q3223.36 4203.55 3223.36 4198.4 Q3223.36 4192.38 3227.37 4189.33 Q3231.41 4186.27 3239.4 4186.27 L3247.61 4186.27 L3247.61 4185.7 Q3247.61 4181.66 3244.94 4179.46 Q3242.29 4177.23 3237.49 4177.23 Q3234.43 4177.23 3231.54 4177.96 Q3228.64 4178.7 3225.97 4180.16 L3225.97 4174.75 Q3229.18 4173.51 3232.2 4172.9 Q3235.23 4172.27 3238.09 4172.27 Q3245.83 4172.27 3249.65 4176.28 Q3253.47 4180.29 3253.47 4188.44 Z" fill="#000000" fill-rule="nonzero" fill-opacity="1" /><path clip-path="url(#clip510)" d="M3295.16 4173.13 L3282.27 4190.47 L3295.83 4208.77 L3288.92 4208.77 L3278.55 4194.77 L3268.17 4208.77 L3261.26 4208.77 L3275.11 4190.12 L3262.44 4173.13 L3269.35 4173.13 L3278.8 4185.83 L3288.25 4173.13 L3295.16 4173.13 Z" fill="#000000" fill-rule="nonzero" fill-opacity="1" /><path clip-path="url(#clip510)" d="M3304.1 4173.13 L3309.96 4173.13 L3309.96 4208.77 L3304.1 4208.77 L3304.1 4173.13 M3304.1 4159.25 L3309.96 4159.25 L3309.96 4166.67 L3304.1 4166.67 L3304.1 4159.25 Z" fill="#000000" fill-rule="nonzero" fill-opacity="1" /><path clip-path="url(#clip510)" d="M3349.97 4179.97 Q3352.17 4176.02 3355.22 4174.15 Q3358.28 4172.27 3362.41 4172.27 Q3367.98 4172.27 3371.01 4176.18 Q3374.03 4180.07 3374.03 4187.26 L3374.03 4208.77 L3368.14 4208.77 L3368.14 4187.45 Q3368.14 4182.33 3366.33 4179.84 Q3364.52 4177.36 3360.79 4177.36 Q3356.24 4177.36 3353.6 4180.38 Q3350.96 4183.41 3350.96 4188.63 L3350.96 4208.77 L3345.07 4208.77 L3345.07 4187.45 Q3345.07 4182.29 3343.25 4179.84 Q3341.44 4177.36 3337.65 4177.36 Q3333.16 4177.36 3330.52 4180.42 Q3327.88 4183.44 3327.88 4188.63 L3327.88 4208.77 L3321.99 4208.77 L3321.99 4173.13 L3327.88 4173.13 L3327.88 4178.66 Q3329.89 4175.39 3332.69 4173.83 Q3335.49 4172.27 3339.34 4172.27 Q3343.22 4172.27 3345.93 4174.24 Q3348.66 4176.21 3349.97 4179.97 Z" fill="#000000" fill-rule="nonzero" fill-opacity="1" /><path clip-path="url(#clip510)" d="M3385.11 4194.71 L3385.11 4173.13 L3390.96 4173.13 L3390.96 4194.48 Q3390.96 4199.54 3392.94 4202.09 Q3394.91 4204.61 3398.86 4204.61 Q3403.6 4204.61 3406.34 4201.58 Q3409.11 4198.56 3409.11 4193.34 L3409.11 4173.13 L3414.96 4173.13 L3414.96 4208.77 L3409.11 4208.77 L3409.11 4203.3 Q3406.97 4206.55 3404.14 4208.14 Q3401.34 4209.7 3397.62 4209.7 Q3391.47 4209.7 3388.29 4205.88 Q3385.11 4202.06 3385.11 4194.71 M3399.85 4172.27 L3399.85 4172.27 Z" fill="#000000" fill-rule="nonzero" fill-opacity="1" /><path clip-path="url(#clip510)" d="M3454.78 4179.97 Q3456.98 4176.02 3460.03 4174.15 Q3463.09 4172.27 3467.23 4172.27 Q3472.8 4172.27 3475.82 4176.18 Q3478.84 4180.07 3478.84 4187.26 L3478.84 4208.77 L3472.96 4208.77 L3472.96 4187.45 Q3472.96 4182.33 3471.14 4179.84 Q3469.33 4177.36 3465.6 4177.36 Q3461.05 4177.36 3458.41 4180.38 Q3455.77 4183.41 3455.77 4188.63 L3455.77 4208.77 L3449.88 4208.77 L3449.88 4187.45 Q3449.88 4182.29 3448.07 4179.84 Q3446.25 4177.36 3442.46 4177.36 Q3437.98 4177.36 3435.33 4180.42 Q3432.69 4183.44 3432.69 4188.63 L3432.69 4208.77 L3426.8 4208.77 L3426.8 4173.13 L3432.69 4173.13 L3432.69 4178.66 Q3434.7 4175.39 3437.5 4173.83 Q3440.3 4172.27 3444.15 4172.27 Q3448.03 4172.27 3450.74 4174.24 Q3453.48 4176.21 3454.78 4179.97 Z" fill="#000000" fill-rule="nonzero" fill-opacity="1" /><path clip-path="url(#clip510)" d="M3511.5 4161.25 L3538.81 4161.25 L3538.81 4166.67 L3517.93 4166.67 L3517.93 4180.67 L3536.77 4180.67 L3536.77 4186.08 L3517.93 4186.08 L3517.93 4208.77 L3511.5 4208.77 L3511.5 4161.25 Z" fill="#000000" fill-rule="nonzero" fill-opacity="1" /><path clip-path="url(#clip510)" d="M3548.74 4159.25 L3554.6 4159.25 L3554.6 4208.77 L3548.74 4208.77 L3548.74 4159.25 Z" fill="#000000" fill-rule="nonzero" fill-opacity="1" /><path clip-path="url(#clip510)" d="M3580.66 4177.23 Q3575.95 4177.23 3573.22 4180.92 Q3570.48 4184.59 3570.48 4190.98 Q3570.48 4197.38 3573.18 4201.07 Q3575.92 4204.73 3580.66 4204.73 Q3585.34 4204.73 3588.08 4201.04 Q3590.82 4197.35 3590.82 4190.98 Q3590.82 4184.65 3588.08 4180.96 Q3585.34 4177.23 3580.66 4177.23 M3580.66 4172.27 Q3588.3 4172.27 3592.66 4177.23 Q3597.02 4182.2 3597.02 4190.98 Q3597.02 4199.74 3592.66 4204.73 Q3588.3 4209.7 3580.66 4209.7 Q3572.99 4209.7 3568.63 4204.73 Q3564.3 4199.74 3564.3 4190.98 Q3564.3 4182.2 3568.63 4177.23 Q3572.99 4172.27 3580.66 4172.27 Z" fill="#000000" fill-rule="nonzero" fill-opacity="1" /><path clip-path="url(#clip510)" d="M3620.54 4177.23 Q3615.83 4177.23 3613.1 4180.92 Q3610.36 4184.59 3610.36 4190.98 Q3610.36 4197.38 3613.06 4201.07 Q3615.8 4204.73 3620.54 4204.73 Q3625.22 4204.73 3627.96 4201.04 Q3630.7 4197.35 3630.7 4190.98 Q3630.7 4184.65 3627.96 4180.96 Q3625.22 4177.23 3620.54 4177.23 M3620.54 4172.27 Q3628.18 4172.27 3632.54 4177.23 Q3636.9 4182.2 3636.9 4190.98 Q3636.9 4199.74 3632.54 4204.73 Q3628.18 4209.7 3620.54 4209.7 Q3612.87 4209.7 3608.51 4204.73 Q3604.18 4199.74 3604.18 4190.98 Q3604.18 4182.2 3608.51 4177.23 Q3612.87 4172.27 3620.54 4172.27 Z" fill="#000000" fill-rule="nonzero" fill-opacity="1" /><path clip-path="url(#clip510)" d="M3670.07 4178.54 L3670.07 4159.25 L3675.93 4159.25 L3675.93 4208.77 L3670.07 4208.77 L3670.07 4203.43 Q3668.22 4206.61 3665.39 4208.17 Q3662.59 4209.7 3658.64 4209.7 Q3652.18 4209.7 3648.11 4204.54 Q3644.07 4199.39 3644.07 4190.98 Q3644.07 4182.58 3648.11 4177.42 Q3652.18 4172.27 3658.64 4172.27 Q3662.59 4172.27 3665.39 4173.83 Q3668.22 4175.35 3670.07 4178.54 M3650.11 4190.98 Q3650.11 4197.44 3652.75 4201.14 Q3655.43 4204.8 3660.08 4204.8 Q3664.72 4204.8 3667.4 4201.14 Q3670.07 4197.44 3670.07 4190.98 Q3670.07 4184.52 3667.4 4180.86 Q3664.72 4177.17 3660.08 4177.17 Q3655.43 4177.17 3652.75 4180.86 Q3650.11 4184.52 3650.11 4190.98 Z" fill="#000000" fill-rule="nonzero" fill-opacity="1" /><path clip-path="url(#clip510)" d="M3715.39 4166.54 L3715.39 4203.49 L3723.16 4203.49 Q3732.99 4203.49 3737.55 4199.04 Q3742.13 4194.58 3742.13 4184.97 Q3742.13 4175.42 3737.55 4170.99 Q3732.99 4166.54 3723.16 4166.54 L3715.39 4166.54 M3708.96 4161.25 L3722.17 4161.25 Q3735.99 4161.25 3742.45 4167.02 Q3748.91 4172.74 3748.91 4184.97 Q3748.91 4197.25 3742.42 4203.01 Q3735.92 4208.77 3722.17 4208.77 L3708.96 4208.77 L3708.96 4161.25 Z" fill="#000000" fill-rule="nonzero" fill-opacity="1" /><path clip-path="url(#clip510)" d="M3789.39 4189.49 L3789.39 4192.35 L3762.47 4192.35 Q3762.85 4198.4 3766.1 4201.58 Q3769.37 4204.73 3775.2 4204.73 Q3778.57 4204.73 3781.72 4203.9 Q3784.91 4203.08 3788.03 4201.42 L3788.03 4206.96 Q3784.87 4208.3 3781.56 4209 Q3778.25 4209.7 3774.85 4209.7 Q3766.32 4209.7 3761.32 4204.73 Q3756.36 4199.77 3756.36 4191.3 Q3756.36 4182.55 3761.07 4177.42 Q3765.81 4172.27 3773.83 4172.27 Q3781.02 4172.27 3785.19 4176.91 Q3789.39 4181.53 3789.39 4189.49 M3783.54 4187.77 Q3783.47 4182.96 3780.83 4180.1 Q3778.22 4177.23 3773.89 4177.23 Q3768.99 4177.23 3766.03 4180 Q3763.1 4182.77 3762.66 4187.8 L3783.54 4187.77 Z" fill="#000000" fill-rule="nonzero" fill-opacity="1" /><path clip-path="url(#clip510)" d="M3804.67 4203.43 L3804.67 4222.33 L3798.78 4222.33 L3798.78 4173.13 L3804.67 4173.13 L3804.67 4178.54 Q3806.52 4175.35 3809.32 4173.83 Q3812.15 4172.27 3816.07 4172.27 Q3822.56 4172.27 3826.6 4177.42 Q3830.68 4182.58 3830.68 4190.98 Q3830.68 4199.39 3826.6 4204.54 Q3822.56 4209.7 3816.07 4209.7 Q3812.15 4209.7 3809.32 4208.17 Q3806.52 4206.61 3804.67 4203.43 M3824.6 4190.98 Q3824.6 4184.52 3821.92 4180.86 Q3819.28 4177.17 3814.63 4177.17 Q3809.99 4177.17 3807.31 4180.86 Q3804.67 4184.52 3804.67 4190.98 Q3804.67 4197.44 3807.31 4201.14 Q3809.99 4204.8 3814.63 4204.8 Q3819.28 4204.8 3821.92 4201.14 Q3824.6 4197.44 3824.6 4190.98 Z" fill="#000000" fill-rule="nonzero" fill-opacity="1" /><path clip-path="url(#clip510)" d="M3846.18 4163.01 L3846.18 4173.13 L3858.24 4173.13 L3858.24 4177.68 L3846.18 4177.68 L3846.18 4197.03 Q3846.18 4201.39 3847.35 4202.63 Q3848.56 4203.87 3852.22 4203.87 L3858.24 4203.87 L3858.24 4208.77 L3852.22 4208.77 Q3845.44 4208.77 3842.87 4206.26 Q3840.29 4203.71 3840.29 4197.03 L3840.29 4177.68 L3835.99 4177.68 L3835.99 4173.13 L3840.29 4173.13 L3840.29 4163.01 L3846.18 4163.01 Z" fill="#000000" fill-rule="nonzero" fill-opacity="1" /><path clip-path="url(#clip510)" d="M3895.57 4187.26 L3895.57 4208.77 L3889.72 4208.77 L3889.72 4187.45 Q3889.72 4182.39 3887.74 4179.87 Q3885.77 4177.36 3881.82 4177.36 Q3877.08 4177.36 3874.34 4180.38 Q3871.61 4183.41 3871.61 4188.63 L3871.61 4208.77 L3865.72 4208.77 L3865.72 4159.25 L3871.61 4159.25 L3871.61 4178.66 Q3873.71 4175.45 3876.54 4173.86 Q3879.41 4172.27 3883.13 4172.27 Q3889.27 4172.27 3892.42 4176.09 Q3895.57 4179.87 3895.57 4187.26 Z" fill="#000000" fill-rule="nonzero" fill-opacity="1" /><polyline clip-path="url(#clip512)" style="stroke:#000000; stroke-linecap:round; stroke-linejoin:round; stroke-width:2; stroke-opacity:0.1; fill:none" points="259.22,3889.01 6552.76,3889.01 "/>
<polyline clip-path="url(#clip512)" style="stroke:#000000; stroke-linecap:round; stroke-linejoin:round; stroke-width:2; stroke-opacity:0.1; fill:none" points="259.22,2687.08 6552.76,2687.08 "/>
<polyline clip-path="url(#clip512)" style="stroke:#000000; stroke-linecap:round; stroke-linejoin:round; stroke-width:2; stroke-opacity:0.1; fill:none" points="259.22,1485.15 6552.76,1485.15 "/>
<polyline clip-path="url(#clip512)" style="stroke:#000000; stroke-linecap:round; stroke-linejoin:round; stroke-width:2; stroke-opacity:0.1; fill:none" points="259.22,283.223 6552.76,283.223 "/>
<polyline clip-path="url(#clip510)" style="stroke:#000000; stroke-linecap:round; stroke-linejoin:round; stroke-width:4; stroke-opacity:1; fill:none" points="259.22,4000.91 259.22,47.2441 "/>
<polyline clip-path="url(#clip510)" style="stroke:#000000; stroke-linecap:round; stroke-linejoin:round; stroke-width:4; stroke-opacity:1; fill:none" points="259.22,3889.01 278.118,3889.01 "/>
<polyline clip-path="url(#clip510)" style="stroke:#000000; stroke-linecap:round; stroke-linejoin:round; stroke-width:4; stroke-opacity:1; fill:none" points="259.22,2687.08 278.118,2687.08 "/>
<polyline clip-path="url(#clip510)" style="stroke:#000000; stroke-linecap:round; stroke-linejoin:round; stroke-width:4; stroke-opacity:1; fill:none" points="259.22,1485.15 278.118,1485.15 "/>
<polyline clip-path="url(#clip510)" style="stroke:#000000; stroke-linecap:round; stroke-linejoin:round; stroke-width:4; stroke-opacity:1; fill:none" points="259.22,283.223 278.118,283.223 "/>
<path clip-path="url(#clip510)" d="M103.045 3874.81 Q99.4334 3874.81 97.6048 3878.38 Q95.7992 3881.92 95.7992 3889.05 Q95.7992 3896.16 97.6048 3899.72 Q99.4334 3903.26 103.045 3903.26 Q106.679 3903.26 108.484 3899.72 Q110.313 3896.16 110.313 3889.05 Q110.313 3881.92 108.484 3878.38 Q106.679 3874.81 103.045 3874.81 M103.045 3871.11 Q108.855 3871.11 111.91 3875.72 Q114.989 3880.3 114.989 3889.05 Q114.989 3897.78 111.91 3902.38 Q108.855 3906.97 103.045 3906.97 Q97.2344 3906.97 94.1557 3902.38 Q91.1002 3897.78 91.1002 3889.05 Q91.1002 3880.3 94.1557 3875.72 Q97.2344 3871.11 103.045 3871.11 Z" fill="#000000" fill-rule="nonzero" fill-opacity="1" /><path clip-path="url(#clip510)" d="M123.206 3900.41 L128.091 3900.41 L128.091 3906.29 L123.206 3906.29 L123.206 3900.41 Z" fill="#000000" fill-rule="nonzero" fill-opacity="1" /><path clip-path="url(#clip510)" d="M148.276 3874.81 Q144.665 3874.81 142.836 3878.38 Q141.03 3881.92 141.03 3889.05 Q141.03 3896.16 142.836 3899.72 Q144.665 3903.26 148.276 3903.26 Q151.91 3903.26 153.716 3899.72 Q155.544 3896.16 155.544 3889.05 Q155.544 3881.92 153.716 3878.38 Q151.91 3874.81 148.276 3874.81 M148.276 3871.11 Q154.086 3871.11 157.141 3875.72 Q160.22 3880.3 160.22 3889.05 Q160.22 3897.78 157.141 3902.38 Q154.086 3906.97 148.276 3906.97 Q142.466 3906.97 139.387 3902.38 Q136.331 3897.78 136.331 3889.05 Q136.331 3880.3 139.387 3875.72 Q142.466 3871.11 148.276 3871.11 Z" fill="#000000" fill-rule="nonzero" fill-opacity="1" /><path clip-path="url(#clip510)" d="M104.271 2672.88 Q100.66 2672.88 98.8316 2676.45 Q97.0261 2679.99 97.0261 2687.12 Q97.0261 2694.23 98.8316 2697.79 Q100.66 2701.33 104.271 2701.33 Q107.906 2701.33 109.711 2697.79 Q111.54 2694.23 111.54 2687.12 Q111.54 2679.99 109.711 2676.45 Q107.906 2672.88 104.271 2672.88 M104.271 2669.18 Q110.082 2669.18 113.137 2673.79 Q116.216 2678.37 116.216 2687.12 Q116.216 2695.85 113.137 2700.45 Q110.082 2705.04 104.271 2705.04 Q98.4612 2705.04 95.3825 2700.45 Q92.327 2695.85 92.327 2687.12 Q92.327 2678.37 95.3825 2673.79 Q98.4612 2669.18 104.271 2669.18 Z" fill="#000000" fill-rule="nonzero" fill-opacity="1" /><path clip-path="url(#clip510)" d="M124.433 2698.48 L129.318 2698.48 L129.318 2704.36 L124.433 2704.36 L124.433 2698.48 Z" fill="#000000" fill-rule="nonzero" fill-opacity="1" /><path clip-path="url(#clip510)" d="M140.313 2700.43 L147.952 2700.43 L147.952 2674.06 L139.642 2675.73 L139.642 2671.47 L147.905 2669.8 L152.581 2669.8 L152.581 2700.43 L160.22 2700.43 L160.22 2704.36 L140.313 2704.36 L140.313 2700.43 Z" fill="#000000" fill-rule="nonzero" fill-opacity="1" /><path clip-path="url(#clip510)" d="M104.642 1470.95 Q101.031 1470.95 99.202 1474.52 Q97.3964 1478.06 97.3964 1485.19 Q97.3964 1492.29 99.202 1495.86 Q101.031 1499.4 104.642 1499.4 Q108.276 1499.4 110.082 1495.86 Q111.91 1492.29 111.91 1485.19 Q111.91 1478.06 110.082 1474.52 Q108.276 1470.95 104.642 1470.95 M104.642 1467.25 Q110.452 1467.25 113.507 1471.85 Q116.586 1476.44 116.586 1485.19 Q116.586 1493.92 113.507 1498.52 Q110.452 1503.1 104.642 1503.1 Q98.8316 1503.1 95.7529 1498.52 Q92.6974 1493.92 92.6974 1485.19 Q92.6974 1476.44 95.7529 1471.85 Q98.8316 1467.25 104.642 1467.25 Z" fill="#000000" fill-rule="nonzero" fill-opacity="1" /><path clip-path="url(#clip510)" d="M124.804 1496.55 L129.688 1496.55 L129.688 1502.43 L124.804 1502.43 L124.804 1496.55 Z" fill="#000000" fill-rule="nonzero" fill-opacity="1" /><path clip-path="url(#clip510)" d="M143.901 1498.5 L160.22 1498.5 L160.22 1502.43 L138.276 1502.43 L138.276 1498.5 Q140.938 1495.74 145.521 1491.11 Q150.128 1486.46 151.308 1485.12 Q153.554 1482.6 154.433 1480.86 Q155.336 1479.1 155.336 1477.41 Q155.336 1474.66 153.391 1472.92 Q151.47 1471.18 148.368 1471.18 Q146.169 1471.18 143.716 1471.95 Q141.285 1472.71 138.507 1474.26 L138.507 1469.54 Q141.331 1468.41 143.785 1467.83 Q146.239 1467.25 148.276 1467.25 Q153.646 1467.25 156.841 1469.93 Q160.035 1472.62 160.035 1477.11 Q160.035 1479.24 159.225 1481.16 Q158.438 1483.06 156.331 1485.65 Q155.753 1486.32 152.651 1489.54 Q149.549 1492.73 143.901 1498.5 Z" fill="#000000" fill-rule="nonzero" fill-opacity="1" /><path clip-path="url(#clip510)" d="M103.693 269.022 Q100.082 269.022 98.2529 272.586 Q96.4474 276.128 96.4474 283.258 Q96.4474 290.364 98.2529 293.929 Q100.082 297.471 103.693 297.471 Q107.327 297.471 109.132 293.929 Q110.961 290.364 110.961 283.258 Q110.961 276.128 109.132 272.586 Q107.327 269.022 103.693 269.022 M103.693 265.318 Q109.503 265.318 112.558 269.924 Q115.637 274.508 115.637 283.258 Q115.637 291.985 112.558 296.591 Q109.503 301.174 103.693 301.174 Q97.8825 301.174 94.8038 296.591 Q91.7483 291.985 91.7483 283.258 Q91.7483 274.508 94.8038 269.924 Q97.8825 265.318 103.693 265.318 Z" fill="#000000" fill-rule="nonzero" fill-opacity="1" /><path clip-path="url(#clip510)" d="M123.855 294.623 L128.739 294.623 L128.739 300.503 L123.855 300.503 L123.855 294.623 Z" fill="#000000" fill-rule="nonzero" fill-opacity="1" /><path clip-path="url(#clip510)" d="M153.091 281.869 Q156.447 282.586 158.322 284.855 Q160.22 287.123 160.22 290.457 Q160.22 295.572 156.702 298.373 Q153.183 301.174 146.702 301.174 Q144.526 301.174 142.211 300.734 Q139.919 300.318 137.466 299.461 L137.466 294.947 Q139.41 296.082 141.725 296.66 Q144.04 297.239 146.563 297.239 Q150.961 297.239 153.253 295.503 Q155.567 293.767 155.567 290.457 Q155.567 287.401 153.415 285.688 Q151.285 283.952 147.466 283.952 L143.438 283.952 L143.438 280.11 L147.651 280.11 Q151.1 280.11 152.929 278.744 Q154.757 277.355 154.757 274.762 Q154.757 272.1 152.859 270.688 Q150.984 269.253 147.466 269.253 Q145.544 269.253 143.345 269.67 Q141.146 270.086 138.507 270.966 L138.507 266.799 Q141.169 266.059 143.484 265.688 Q145.822 265.318 147.882 265.318 Q153.206 265.318 156.308 267.749 Q159.41 270.156 159.41 274.276 Q159.41 277.147 157.766 279.137 Q156.123 281.105 153.091 281.869 Z" fill="#000000" fill-rule="nonzero" fill-opacity="1" /><path clip-path="url(#clip510)" d="M-64.3923 2320.04 L-46.5365 2320.04 L-46.5365 2311.95 Q-46.5365 2307.46 -48.86 2305.01 Q-51.1835 2302.56 -55.4803 2302.56 Q-59.7453 2302.56 -62.0688 2305.01 Q-64.3923 2307.46 -64.3923 2311.95 L-64.3923 2320.04 M-69.6758 2326.46 L-69.6758 2311.95 Q-69.6758 2303.96 -66.0474 2299.89 Q-62.4508 2295.78 -55.4803 2295.78 Q-48.4462 2295.78 -44.8496 2299.89 Q-41.253 2303.96 -41.253 2311.95 L-41.253 2320.04 L-22.1558 2320.04 L-22.1558 2326.46 L-69.6758 2326.46 Z" fill="#000000" fill-rule="nonzero" fill-opacity="1" /><path clip-path="url(#clip510)" d="M-52.3293 2267.9 Q-52.9022 2268.89 -53.1568 2270.06 Q-53.4433 2271.21 -53.4433 2272.61 Q-53.4433 2277.58 -50.1968 2280.25 Q-46.9821 2282.89 -40.9347 2282.89 L-22.1558 2282.89 L-22.1558 2288.78 L-57.8038 2288.78 L-57.8038 2282.89 L-52.2656 2282.89 Q-55.5121 2281.05 -57.0717 2278.09 Q-58.6632 2275.12 -58.6632 2270.89 Q-58.6632 2270.29 -58.5677 2269.55 Q-58.504 2268.82 -58.3449 2267.93 L-52.3293 2267.9 Z" fill="#000000" fill-rule="nonzero" fill-opacity="1" /><path clip-path="url(#clip510)" d="M-53.6979 2249.38 Q-53.6979 2254.09 -50.0058 2256.82 Q-46.3455 2259.56 -39.948 2259.56 Q-33.5505 2259.56 -29.8583 2256.86 Q-26.1981 2254.12 -26.1981 2249.38 Q-26.1981 2244.7 -29.8902 2241.96 Q-33.5823 2239.22 -39.948 2239.22 Q-46.2819 2239.22 -49.974 2241.96 Q-53.6979 2244.7 -53.6979 2249.38 M-58.6632 2249.38 Q-58.6632 2241.74 -53.6979 2237.38 Q-48.7327 2233.02 -39.948 2233.02 Q-31.1951 2233.02 -26.1981 2237.38 Q-21.2328 2241.74 -21.2328 2249.38 Q-21.2328 2257.05 -26.1981 2261.41 Q-31.1951 2265.74 -39.948 2265.74 Q-48.7327 2265.74 -53.6979 2261.41 Q-58.6632 2257.05 -58.6632 2249.38 Z" fill="#000000" fill-rule="nonzero" fill-opacity="1" /><path clip-path="url(#clip510)" d="M-39.948 2197.72 Q-46.4092 2197.72 -50.0695 2200.39 Q-53.7616 2203.03 -53.7616 2207.68 Q-53.7616 2212.33 -50.0695 2215 Q-46.4092 2217.64 -39.948 2217.64 Q-33.4868 2217.64 -29.7947 2215 Q-26.1344 2212.33 -26.1344 2207.68 Q-26.1344 2203.03 -29.7947 2200.39 Q-33.4868 2197.72 -39.948 2197.72 M-52.3929 2217.64 Q-55.5758 2215.8 -57.1036 2213 Q-58.6632 2210.16 -58.6632 2206.25 Q-58.6632 2199.76 -53.5069 2195.71 Q-48.3507 2191.64 -39.948 2191.64 Q-31.5453 2191.64 -26.389 2195.71 Q-21.2328 2199.76 -21.2328 2206.25 Q-21.2328 2210.16 -22.7606 2213 Q-24.3202 2215.8 -27.503 2217.64 L-22.1558 2217.64 L-22.1558 2223.53 L-71.681 2223.53 L-71.681 2217.64 L-52.3929 2217.64 Z" fill="#000000" fill-rule="nonzero" fill-opacity="1" /><path clip-path="url(#clip510)" d="M-40.0753 2165.73 Q-40.0753 2172.83 -38.4521 2175.57 Q-36.8288 2178.3 -32.9139 2178.3 Q-29.7947 2178.3 -27.9486 2176.27 Q-26.1344 2174.2 -26.1344 2170.66 Q-26.1344 2165.79 -29.5719 2162.87 Q-33.0412 2159.91 -38.7703 2159.91 L-40.0753 2159.91 L-40.0753 2165.73 M-42.4943 2154.05 L-22.1558 2154.05 L-22.1558 2159.91 L-27.5667 2159.91 Q-24.3202 2161.91 -22.7606 2164.9 Q-21.2328 2167.89 -21.2328 2172.22 Q-21.2328 2177.7 -24.2884 2180.94 Q-27.3757 2184.16 -32.5319 2184.16 Q-38.5475 2184.16 -41.6031 2180.15 Q-44.6586 2176.11 -44.6586 2168.12 L-44.6586 2159.91 L-45.2315 2159.91 Q-49.2738 2159.91 -51.4699 2162.58 Q-53.6979 2165.22 -53.6979 2170.03 Q-53.6979 2173.08 -52.9659 2175.98 Q-52.2338 2178.88 -50.7697 2181.55 L-56.1805 2181.55 Q-57.4219 2178.33 -58.0266 2175.31 Q-58.6632 2172.29 -58.6632 2169.42 Q-58.6632 2161.69 -54.6528 2157.87 Q-50.6424 2154.05 -42.4943 2154.05 Z" fill="#000000" fill-rule="nonzero" fill-opacity="1" /><path clip-path="url(#clip510)" d="M-39.948 2116.4 Q-46.4092 2116.4 -50.0695 2119.07 Q-53.7616 2121.71 -53.7616 2126.36 Q-53.7616 2131.01 -50.0695 2133.68 Q-46.4092 2136.32 -39.948 2136.32 Q-33.4868 2136.32 -29.7947 2133.68 Q-26.1344 2131.01 -26.1344 2126.36 Q-26.1344 2121.71 -29.7947 2119.07 Q-33.4868 2116.4 -39.948 2116.4 M-52.3929 2136.32 Q-55.5758 2134.47 -57.1036 2131.67 Q-58.6632 2128.84 -58.6632 2124.93 Q-58.6632 2118.43 -53.5069 2114.39 Q-48.3507 2110.32 -39.948 2110.32 Q-31.5453 2110.32 -26.389 2114.39 Q-21.2328 2118.43 -21.2328 2124.93 Q-21.2328 2128.84 -22.7606 2131.67 Q-24.3202 2134.47 -27.503 2136.32 L-22.1558 2136.32 L-22.1558 2142.21 L-71.681 2142.21 L-71.681 2136.32 L-52.3929 2136.32 Z" fill="#000000" fill-rule="nonzero" fill-opacity="1" /><path clip-path="url(#clip510)" d="M-57.8038 2100.61 L-57.8038 2094.75 L-22.1558 2094.75 L-22.1558 2100.61 L-57.8038 2100.61 M-71.681 2100.61 L-71.681 2094.75 L-64.265 2094.75 L-64.265 2100.61 L-71.681 2100.61 Z" fill="#000000" fill-rule="nonzero" fill-opacity="1" /><path clip-path="url(#clip510)" d="M-71.681 2082.5 L-71.681 2076.64 L-22.1558 2076.64 L-22.1558 2082.5 L-71.681 2082.5 Z" fill="#000000" fill-rule="nonzero" fill-opacity="1" /><path clip-path="url(#clip510)" d="M-57.8038 2064.39 L-57.8038 2058.53 L-22.1558 2058.53 L-22.1558 2064.39 L-57.8038 2064.39 M-71.681 2064.39 L-71.681 2058.53 L-64.265 2058.53 L-64.265 2064.39 L-71.681 2064.39 Z" fill="#000000" fill-rule="nonzero" fill-opacity="1" /><path clip-path="url(#clip510)" d="M-67.9253 2040.49 L-57.8038 2040.49 L-57.8038 2028.42 L-53.2523 2028.42 L-53.2523 2040.49 L-33.9006 2040.49 Q-29.5401 2040.49 -28.2987 2039.31 Q-27.0574 2038.1 -27.0574 2034.44 L-27.0574 2028.42 L-22.1558 2028.42 L-22.1558 2034.44 Q-22.1558 2041.22 -24.6703 2043.8 Q-27.2166 2046.37 -33.9006 2046.37 L-53.2523 2046.37 L-53.2523 2050.67 L-57.8038 2050.67 L-57.8038 2046.37 L-67.9253 2046.37 L-67.9253 2040.49 Z" fill="#000000" fill-rule="nonzero" fill-opacity="1" /><path clip-path="url(#clip510)" d="M-18.8457 2005.89 Q-12.48 2008.37 -10.5384 2010.73 Q-8.59689 2013.08 -8.59689 2017.03 L-8.59689 2021.71 L-13.4985 2021.71 L-13.4985 2018.27 Q-13.4985 2015.85 -14.6443 2014.51 Q-15.7901 2013.18 -20.0552 2011.55 L-22.7288 2010.5 L-57.8038 2024.92 L-57.8038 2018.71 L-29.922 2007.57 L-57.8038 1996.43 L-57.8038 1990.23 L-18.8457 2005.89 Z" fill="#000000" fill-rule="nonzero" fill-opacity="1" /><path clip-path="url(#clip510)" d="M-64.3923 1954.74 L-27.4394 1954.74 L-27.4394 1946.97 Q-27.4394 1937.14 -31.8954 1932.59 Q-36.3514 1928 -45.9636 1928 Q-55.5121 1928 -59.9363 1932.59 Q-64.3923 1937.14 -64.3923 1946.97 L-64.3923 1954.74 M-69.6758 1961.17 L-69.6758 1947.96 Q-69.6758 1934.15 -63.9149 1927.68 Q-58.1857 1921.22 -45.9636 1921.22 Q-33.6778 1921.22 -27.9168 1927.72 Q-22.1558 1934.21 -22.1558 1947.96 L-22.1558 1961.17 L-69.6758 1961.17 Z" fill="#000000" fill-rule="nonzero" fill-opacity="1" /><path clip-path="url(#clip510)" d="M-41.4439 1880.74 L-38.5794 1880.74 L-38.5794 1907.66 Q-32.5319 1907.28 -29.3491 1904.04 Q-26.1981 1900.76 -26.1981 1894.93 Q-26.1981 1891.56 -27.0256 1888.41 Q-27.8531 1885.23 -29.5082 1882.11 L-23.9701 1882.11 Q-22.6333 1885.26 -21.933 1888.57 Q-21.2328 1891.88 -21.2328 1895.28 Q-21.2328 1903.81 -26.1981 1908.81 Q-31.1633 1913.78 -39.6297 1913.78 Q-48.3826 1913.78 -53.5069 1909.07 Q-58.6632 1904.32 -58.6632 1896.3 Q-58.6632 1889.11 -54.0162 1884.94 Q-49.4011 1880.74 -41.4439 1880.74 M-43.1627 1886.59 Q-47.9688 1886.66 -50.8334 1889.3 Q-53.6979 1891.91 -53.6979 1896.24 Q-53.6979 1901.14 -50.9288 1904.1 Q-48.1598 1907.03 -43.1308 1907.47 L-43.1627 1886.59 Z" fill="#000000" fill-rule="nonzero" fill-opacity="1" /><path clip-path="url(#clip510)" d="M-43.6719 1841.49 L-22.1558 1841.49 L-22.1558 1847.35 L-43.481 1847.35 Q-48.5417 1847.35 -51.0562 1849.32 Q-53.5706 1851.3 -53.5706 1855.24 Q-53.5706 1859.99 -50.5469 1862.72 Q-47.5232 1865.46 -42.3033 1865.46 L-22.1558 1865.46 L-22.1558 1871.35 L-57.8038 1871.35 L-57.8038 1865.46 L-52.2656 1865.46 Q-55.4803 1863.36 -57.0717 1860.53 Q-58.6632 1857.66 -58.6632 1853.94 Q-58.6632 1847.8 -54.8437 1844.64 Q-51.0562 1841.49 -43.6719 1841.49 Z" fill="#000000" fill-rule="nonzero" fill-opacity="1" /><path clip-path="url(#clip510)" d="M-56.7535 1807.09 L-51.2153 1807.09 Q-52.4884 1809.57 -53.125 1812.24 Q-53.7616 1814.92 -53.7616 1817.78 Q-53.7616 1822.14 -52.4248 1824.34 Q-51.088 1826.5 -48.4144 1826.5 Q-46.3774 1826.5 -45.1997 1824.94 Q-44.0539 1823.38 -43.0035 1818.67 L-42.5579 1816.67 Q-41.2211 1810.43 -38.7703 1807.82 Q-36.3514 1805.18 -31.9909 1805.18 Q-27.0256 1805.18 -24.1292 1809.12 Q-21.2328 1813.04 -21.2328 1819.91 Q-21.2328 1822.78 -21.8057 1825.9 Q-22.3468 1828.98 -23.4608 1832.42 L-29.5082 1832.42 Q-27.8213 1829.18 -26.962 1826.02 Q-26.1344 1822.87 -26.1344 1819.79 Q-26.1344 1815.65 -27.5349 1813.42 Q-28.9671 1811.19 -31.5453 1811.19 Q-33.9324 1811.19 -35.2055 1812.82 Q-36.4787 1814.41 -37.6563 1819.85 L-38.1338 1821.89 Q-39.2796 1827.33 -41.6349 1829.75 Q-44.022 1832.17 -48.1598 1832.17 Q-53.1887 1832.17 -55.9259 1828.6 Q-58.6632 1825.04 -58.6632 1818.48 Q-58.6632 1815.23 -58.1857 1812.37 Q-57.7083 1809.51 -56.7535 1807.09 Z" fill="#000000" fill-rule="nonzero" fill-opacity="1" /><path clip-path="url(#clip510)" d="M-57.8038 1795.85 L-57.8038 1789.99 L-22.1558 1789.99 L-22.1558 1795.85 L-57.8038 1795.85 M-71.681 1795.85 L-71.681 1789.99 L-64.265 1789.99 L-64.265 1795.85 L-71.681 1795.85 Z" fill="#000000" fill-rule="nonzero" fill-opacity="1" /><path clip-path="url(#clip510)" d="M-67.9253 1771.95 L-57.8038 1771.95 L-57.8038 1759.88 L-53.2523 1759.88 L-53.2523 1771.95 L-33.9006 1771.95 Q-29.5401 1771.95 -28.2987 1770.77 Q-27.0574 1769.56 -27.0574 1765.9 L-27.0574 1759.88 L-22.1558 1759.88 L-22.1558 1765.9 Q-22.1558 1772.68 -24.6703 1775.26 Q-27.2166 1777.84 -33.9006 1777.84 L-53.2523 1777.84 L-53.2523 1782.13 L-57.8038 1782.13 L-57.8038 1777.84 L-67.9253 1777.84 L-67.9253 1771.95 Z" fill="#000000" fill-rule="nonzero" fill-opacity="1" /><path clip-path="url(#clip510)" d="M-18.8457 1737.35 Q-12.48 1739.83 -10.5384 1742.19 Q-8.59689 1744.54 -8.59689 1748.49 L-8.59689 1753.17 L-13.4985 1753.17 L-13.4985 1749.73 Q-13.4985 1747.31 -14.6443 1745.98 Q-15.7901 1744.64 -20.0552 1743.02 L-22.7288 1741.97 L-57.8038 1756.38 L-57.8038 1750.18 L-29.922 1739.04 L-57.8038 1727.9 L-57.8038 1721.69 L-18.8457 1737.35 Z" fill="#000000" fill-rule="nonzero" fill-opacity="1" /><polyline clip-path="url(#clip512)" style="stroke:#009af9; stroke-linecap:round; stroke-linejoin:round; stroke-width:4; stroke-opacity:1; fill:none" points="259.22,3889.01 287.24,3889.01 315.26,3889.01 574.346,3889.01 833.431,3889 989.131,3888.48 1144.83,3882.44 1210.65,3874.06 1276.47,3858.41 1309.38,3846.73 1342.29,3831.79 1375.2,3813.04 1408.11,3789.92 1443.86,3759.22 1479.61,3722.03 1515.36,3677.74 1551.11,3625.81 1586.86,3565.79 1622.61,3497.39 1658.36,3420.4 1694.11,3334.8 1727.07,3248.35 1760.03,3154.87 1792.99,3054.67 1825.95,2948.16 1858.91,2835.84 1891.86,2718.3 1924.82,2596.2 1957.78,2470.27 2028.45,2190.96 2099.12,1905.72 2169.79,1622.84 2240.46,1350.33 2281.4,1200.09 2322.34,1057.05 2363.28,922.315 2404.22,796.862 2424.69,737.88 2445.15,681.515 2465.62,627.845 2486.09,576.939 2506.56,528.857 2527.03,483.649 2547.5,441.356 2567.97,402.009 2586.16,369.533 2604.35,339.414 2622.54,311.655 2640.73,286.258 2677.12,242.527 2713.5,208.134 2749.88,182.923 2786.26,166.681 2822.64,159.14 2859.02,159.988 2890.93,167.357 2922.83,180.648 2954.73,199.584 2986.64,223.879 3018.54,253.233 3050.45,287.343 3082.35,325.896 3114.25,368.582 3149.04,419.463 3183.82,474.48 3218.6,533.238 3253.39,595.346 3288.17,660.424 3322.95,728.103 3357.74,798.029 3392.52,869.86 3532.48,1171.78 3672.44,1481.11 3749.81,1649.97 3827.18,1814.89 3904.55,1974.44 3981.93,2127.48 4055.54,2266.32 4129.16,2398.04 4202.78,2522.33 4276.4,2639.05 4352.94,2752.35 4429.49,2857.54 4506.03,2954.82 4582.58,3044.45 4647.01,3114.21 4711.45,3179.01 4775.88,3239.07 4840.31,3294.65 4918.98,3356.77 4997.65,3413.01 5076.32,3463.82 5154.98,3509.63 5227.05,3547.56 5299.11,3581.94 5371.18,3613.07 5443.24,3641.21 5576.36,3686.21 5709.47,3723.36 5844.31,3754.28 5979.15,3779.59 6130.27,3802.48 6281.39,3820.68 6418.32,3833.88 6555.26,3844.57 6868.83,3861.93 7159.16,3871.92 7445.4,3878.16 7723.31,3882.02 8008.21,3884.56 8320.35,3886.29 8773.78,3887.67 8866.8,3887.85 "/>
<polyline clip-path="url(#clip512)" style="stroke:#e26f46; stroke-linecap:round; stroke-linejoin:round; stroke-width:4; stroke-opacity:1; fill:none" points="-55.4566,3889.01 25.7171,3889.01 106.891,3889.01 188.065,3889.01 269.238,3889.01 644.523,3889.01 1019.81,3889.01 1207.45,3889.01 1395.09,3888.6 1442,3887.64 1488.91,3885.16 1535.82,3879.65 1582.73,3868.79 1606.19,3860.42 1629.64,3849.53 1653.1,3835.65 1676.55,3818.32 1700.01,3797.09 1723.46,3771.53 1746.92,3741.26 1770.38,3705.96 1793.83,3665.34 1817.29,3619.25 1840.74,3567.57 1864.2,3510.29 1887.65,3447.49 1911.11,3379.33 1934.56,3306.06 1958.02,3228 1981.47,3145.52 2004.93,3059.08 2028.38,2969.17 2051.84,2876.31 2098.75,2683.95 2145.66,2486.54 2192.57,2288.55 2239.48,2094.18 2262.94,1999.54 2286.39,1907.16 2309.85,1817.41 2333.3,1730.63 2356.76,1647.11 2380.21,1567.12 2403.67,1490.86 2427.12,1418.52 2450.58,1350.24 2474.03,1286.13 2497.49,1226.26 2520.94,1170.68 2544.4,1119.41 2567.85,1072.45 2591.31,1029.76 2614.77,991.293 2638.22,956.984 2661.68,926.746 2685.13,900.484 2708.59,878.086 2732.04,859.434 2755.5,844.399 2778.95,832.848 2802.41,824.641 2825.86,819.636 2849.32,817.686 2872.77,818.646 2896.23,822.367 2919.68,828.702 2943.14,837.508 2966.59,848.638 2990.05,861.954 3036.96,894.589 3083.87,934.35 3130.78,980.237 3177.69,1031.32 3224.6,1086.75 3271.51,1145.74 3327.9,1220.35 3384.28,1297.98 3440.66,1377.69 3497.04,1458.64 3609.81,1621.55 3722.57,1782.29 3835.34,1937.79 3948.1,2086.06 4004.49,2157.08 4060.87,2225.9 4117.25,2292.46 4173.63,2356.72 4230.02,2418.67 4286.4,2478.32 4342.78,2535.68 4399.16,2590.8 4455.55,2643.71 4511.93,2694.47 4568.31,2743.14 4624.69,2789.77 4737.46,2877.17 4850.22,2957.23 4962.99,3030.48 5075.75,3097.46 5171.1,3149.58 5266.44,3197.88 5361.78,3242.66 5457.12,3284.16 5552.46,3322.64 5647.8,3358.33 5743.14,3391.44 5838.49,3422.19 6029.17,3477.26 6219.85,3524.87 6410.53,3566.11 6601.22,3601.93 6808.35,3635.61 7015.49,3664.67 7222.62,3689.83 7429.76,3711.67 7636.89,3730.69 7844.03,3747.3 8051.16,3761.85 8258.3,3774.63 8640.22,3794.34 9022.14,3810.08 9404.06,3822.74 9785.98,3833.01 10604.9,3849.2 11423.8,3860.01 12372.6,3868.39 13321.4,3873.99 15007.8,3880.01 16486.6,3883 18098.8,3884.99 19720.7,3886.24 21513.8,3887.11 23220,3887.64 24994,3888.02 26487.3,3888.24 28310.5,3888.43 29980.7,3888.56 31523.2,3888.65 33085.7,3888.72 34836.9,3888.78 36423.7,3888.82 38240.5,3888.86 39922.7,3888.88 41581.2,3888.9 43191.4,3888.92 44842.1,3888.93 46650.6,3888.95 49277.7,3888.96 49816.7,3888.96 "/>
<path clip-path="url(#clip510)" d="M5218.06 334.553 L6342.97 334.553 L6342.97 179.033 L5218.06 179.033  Z" fill="#ffffff" fill-rule="evenodd" fill-opacity="1"/>
<polyline clip-path="url(#clip510)" style="stroke:#000000; stroke-linecap:round; stroke-linejoin:round; stroke-width:4; stroke-opacity:1; fill:none" points="5218.06,334.553 6342.97,334.553 6342.97,179.033 5218.06,179.033 5218.06,334.553 "/>
<polyline clip-path="url(#clip510)" style="stroke:#009af9; stroke-linecap:round; stroke-linejoin:round; stroke-width:4; stroke-opacity:1; fill:none" points="5287.99,230.873 5707.56,230.873 "/>
<path clip-path="url(#clip510)" d="M5777.49 213.593 L5782.17 213.593 L5782.17 244.218 L5798.99 244.218 L5798.99 248.153 L5777.49 248.153 L5777.49 213.593 Z" fill="#000000" fill-rule="nonzero" fill-opacity="1" /><path clip-path="url(#clip510)" d="M5812.93 225.213 Q5809.5 225.213 5807.51 227.898 Q5805.52 230.56 5805.52 235.213 Q5805.52 239.866 5807.49 242.551 Q5809.48 245.213 5812.93 245.213 Q5816.33 245.213 5818.32 242.528 Q5820.31 239.843 5820.31 235.213 Q5820.31 230.607 5818.32 227.922 Q5816.33 225.213 5812.93 225.213 M5812.93 221.602 Q5818.49 221.602 5821.66 225.213 Q5824.83 228.824 5824.83 235.213 Q5824.83 241.579 5821.66 245.213 Q5818.49 248.824 5812.93 248.824 Q5807.35 248.824 5804.18 245.213 Q5801.03 241.579 5801.03 235.213 Q5801.03 228.824 5804.18 225.213 Q5807.35 221.602 5812.93 221.602 Z" fill="#000000" fill-rule="nonzero" fill-opacity="1" /><path clip-path="url(#clip510)" d="M5848.95 234.889 Q5848.95 230.26 5847.03 227.713 Q5845.13 225.167 5841.68 225.167 Q5838.25 225.167 5836.33 227.713 Q5834.43 230.26 5834.43 234.889 Q5834.43 239.496 5836.33 242.042 Q5838.25 244.588 5841.68 244.588 Q5845.13 244.588 5847.03 242.042 Q5848.95 239.496 5848.95 234.889 M5853.21 244.935 Q5853.21 251.556 5850.27 254.773 Q5847.33 258.014 5841.26 258.014 Q5839.02 258.014 5837.03 257.667 Q5835.04 257.343 5833.16 256.648 L5833.16 252.505 Q5835.04 253.523 5836.86 254.009 Q5838.69 254.496 5840.59 254.496 Q5844.78 254.496 5846.86 252.296 Q5848.95 250.121 5848.95 245.699 L5848.95 243.593 Q5847.63 245.884 5845.57 247.019 Q5843.51 248.153 5840.64 248.153 Q5835.87 248.153 5832.95 244.519 Q5830.04 240.885 5830.04 234.889 Q5830.04 228.871 5832.95 225.236 Q5835.87 221.602 5840.64 221.602 Q5843.51 221.602 5845.57 222.736 Q5847.63 223.871 5848.95 226.162 L5848.95 222.227 L5853.21 222.227 L5853.21 244.935 Z" fill="#000000" fill-rule="nonzero" fill-opacity="1" /><path clip-path="url(#clip510)" d="M5862.17 213.593 L5868.46 213.593 L5883.79 242.505 L5883.79 213.593 L5888.32 213.593 L5888.32 248.153 L5882.03 248.153 L5866.7 219.241 L5866.7 248.153 L5862.17 248.153 L5862.17 213.593 Z" fill="#000000" fill-rule="nonzero" fill-opacity="1" /><path clip-path="url(#clip510)" d="M5907.49 225.213 Q5904.06 225.213 5902.07 227.898 Q5900.08 230.56 5900.08 235.213 Q5900.08 239.866 5902.05 242.551 Q5904.04 245.213 5907.49 245.213 Q5910.89 245.213 5912.88 242.528 Q5914.87 239.843 5914.87 235.213 Q5914.87 230.607 5912.88 227.922 Q5910.89 225.213 5907.49 225.213 M5907.49 221.602 Q5913.05 221.602 5916.22 225.213 Q5919.39 228.824 5919.39 235.213 Q5919.39 241.579 5916.22 245.213 Q5913.05 248.824 5907.49 248.824 Q5901.91 248.824 5898.74 245.213 Q5895.59 241.579 5895.59 235.213 Q5895.59 228.824 5898.74 225.213 Q5901.91 221.602 5907.49 221.602 Z" fill="#000000" fill-rule="nonzero" fill-opacity="1" /><path clip-path="url(#clip510)" d="M5941.47 226.209 Q5940.75 225.792 5939.9 225.607 Q5939.06 225.398 5938.05 225.398 Q5934.43 225.398 5932.49 227.76 Q5930.57 230.098 5930.57 234.496 L5930.57 248.153 L5926.29 248.153 L5926.29 222.227 L5930.57 222.227 L5930.57 226.255 Q5931.91 223.894 5934.06 222.76 Q5936.22 221.602 5939.29 221.602 Q5939.73 221.602 5940.27 221.672 Q5940.8 221.718 5941.45 221.834 L5941.47 226.209 Z" fill="#000000" fill-rule="nonzero" fill-opacity="1" /><path clip-path="url(#clip510)" d="M5965.29 227.204 Q5966.89 224.334 5969.11 222.968 Q5971.33 221.602 5974.34 221.602 Q5978.39 221.602 5980.59 224.449 Q5982.79 227.273 5982.79 232.505 L5982.79 248.153 L5978.51 248.153 L5978.51 232.644 Q5978.51 228.917 5977.19 227.111 Q5975.87 225.306 5973.16 225.306 Q5969.85 225.306 5967.93 227.505 Q5966.01 229.704 5966.01 233.5 L5966.01 248.153 L5961.73 248.153 L5961.73 232.644 Q5961.73 228.894 5960.41 227.111 Q5959.09 225.306 5956.33 225.306 Q5953.07 225.306 5951.15 227.528 Q5949.23 229.727 5949.23 233.5 L5949.23 248.153 L5944.94 248.153 L5944.94 222.227 L5949.23 222.227 L5949.23 226.255 Q5950.68 223.871 5952.72 222.736 Q5954.76 221.602 5957.56 221.602 Q5960.38 221.602 5962.35 223.037 Q5964.34 224.473 5965.29 227.204 Z" fill="#000000" fill-rule="nonzero" fill-opacity="1" /><path clip-path="url(#clip510)" d="M6003.07 235.121 Q5997.91 235.121 5995.92 236.301 Q5993.92 237.482 5993.92 240.329 Q5993.92 242.597 5995.41 243.94 Q5996.91 245.259 5999.48 245.259 Q6003.02 245.259 6005.15 242.759 Q6007.3 240.236 6007.3 236.07 L6007.3 235.121 L6003.07 235.121 M6011.56 233.361 L6011.56 248.153 L6007.3 248.153 L6007.3 244.218 Q6005.85 246.579 6003.67 247.713 Q6001.49 248.824 5998.35 248.824 Q5994.36 248.824 5992 246.602 Q5989.67 244.357 5989.67 240.607 Q5989.67 236.232 5992.58 234.01 Q5995.52 231.787 6001.33 231.787 L6007.3 231.787 L6007.3 231.371 Q6007.3 228.431 6005.36 226.834 Q6003.44 225.213 5999.94 225.213 Q5997.72 225.213 5995.61 225.746 Q5993.51 226.278 5991.56 227.343 L5991.56 223.408 Q5993.9 222.505 5996.1 222.065 Q5998.3 221.602 6000.38 221.602 Q6006.01 221.602 6008.79 224.519 Q6011.56 227.436 6011.56 233.361 Z" fill="#000000" fill-rule="nonzero" fill-opacity="1" /><path clip-path="url(#clip510)" d="M6020.34 212.135 L6024.6 212.135 L6024.6 248.153 L6020.34 248.153 L6020.34 212.135 Z" fill="#000000" fill-rule="nonzero" fill-opacity="1" /><path clip-path="url(#clip510)" d="M6043.74 212.181 Q6040.64 217.505 6039.13 222.713 Q6037.63 227.922 6037.63 233.269 Q6037.63 238.616 6039.13 243.871 Q6040.66 249.102 6043.74 254.403 L6040.04 254.403 Q6036.56 248.963 6034.83 243.709 Q6033.11 238.454 6033.11 233.269 Q6033.11 228.107 6034.83 222.875 Q6036.54 217.644 6040.04 212.181 L6043.74 212.181 Z" fill="#000000" fill-rule="nonzero" fill-opacity="1" /><path clip-path="url(#clip510)" d="M6053.41 244.218 L6061.05 244.218 L6061.05 217.852 L6052.74 219.519 L6052.74 215.26 L6061.01 213.593 L6065.68 213.593 L6065.68 244.218 L6073.32 244.218 L6073.32 248.153 L6053.41 248.153 L6053.41 244.218 Z" fill="#000000" fill-rule="nonzero" fill-opacity="1" /><path clip-path="url(#clip510)" d="M6082.77 242.273 L6087.65 242.273 L6087.65 248.153 L6082.77 248.153 L6082.77 242.273 Z" fill="#000000" fill-rule="nonzero" fill-opacity="1" /><path clip-path="url(#clip510)" d="M6097.88 213.593 L6116.24 213.593 L6116.24 217.528 L6102.16 217.528 L6102.16 226 Q6103.18 225.653 6104.2 225.491 Q6105.22 225.306 6106.24 225.306 Q6112.03 225.306 6115.41 228.477 Q6118.78 231.648 6118.78 237.065 Q6118.78 242.644 6115.31 245.746 Q6111.84 248.824 6105.52 248.824 Q6103.35 248.824 6101.08 248.454 Q6098.83 248.084 6096.42 247.343 L6096.42 242.644 Q6098.51 243.778 6100.73 244.334 Q6102.95 244.889 6105.43 244.889 Q6109.43 244.889 6111.77 242.783 Q6114.11 240.676 6114.11 237.065 Q6114.11 233.454 6111.77 231.348 Q6109.43 229.241 6105.43 229.241 Q6103.55 229.241 6101.68 229.658 Q6099.83 230.074 6097.88 230.954 L6097.88 213.593 Z" fill="#000000" fill-rule="nonzero" fill-opacity="1" /><path clip-path="url(#clip510)" d="M6128.48 242.273 L6133.37 242.273 L6133.37 246.255 L6129.57 253.662 L6126.59 253.662 L6128.48 246.255 L6128.48 242.273 Z" fill="#000000" fill-rule="nonzero" fill-opacity="1" /><path clip-path="url(#clip510)" d="M6168.14 216.672 Q6164.53 216.672 6162.7 220.236 Q6160.89 223.778 6160.89 230.908 Q6160.89 238.014 6162.7 241.579 Q6164.53 245.121 6168.14 245.121 Q6171.77 245.121 6173.58 241.579 Q6175.4 238.014 6175.4 230.908 Q6175.4 223.778 6173.58 220.236 Q6171.77 216.672 6168.14 216.672 M6168.14 212.968 Q6173.95 212.968 6177 217.574 Q6180.08 222.158 6180.08 230.908 Q6180.08 239.635 6177 244.241 Q6173.95 248.824 6168.14 248.824 Q6162.33 248.824 6159.25 244.241 Q6156.19 239.635 6156.19 230.908 Q6156.19 222.158 6159.25 217.574 Q6162.33 212.968 6168.14 212.968 Z" fill="#000000" fill-rule="nonzero" fill-opacity="1" /><path clip-path="url(#clip510)" d="M6188.3 242.273 L6193.18 242.273 L6193.18 248.153 L6188.3 248.153 L6188.3 242.273 Z" fill="#000000" fill-rule="nonzero" fill-opacity="1" /><path clip-path="url(#clip510)" d="M6207.4 244.218 L6223.71 244.218 L6223.71 248.153 L6201.77 248.153 L6201.77 244.218 Q6204.43 241.463 6209.02 236.834 Q6213.62 232.181 6214.8 230.838 Q6217.05 228.315 6217.93 226.579 Q6218.83 224.82 6218.83 223.13 Q6218.83 220.375 6216.89 218.639 Q6214.96 216.903 6211.86 216.903 Q6209.66 216.903 6207.21 217.667 Q6204.78 218.431 6202 219.982 L6202 215.26 Q6204.83 214.125 6207.28 213.547 Q6209.73 212.968 6211.77 212.968 Q6217.14 212.968 6220.34 215.653 Q6223.53 218.338 6223.53 222.829 Q6223.53 224.959 6222.72 226.88 Q6221.93 228.778 6219.83 231.371 Q6219.25 232.042 6216.15 235.26 Q6213.04 238.454 6207.4 244.218 Z" fill="#000000" fill-rule="nonzero" fill-opacity="1" /><path clip-path="url(#clip510)" d="M6233.58 213.593 L6251.93 213.593 L6251.93 217.528 L6237.86 217.528 L6237.86 226 Q6238.88 225.653 6239.9 225.491 Q6240.91 225.306 6241.93 225.306 Q6247.72 225.306 6251.1 228.477 Q6254.48 231.648 6254.48 237.065 Q6254.48 242.644 6251.01 245.746 Q6247.53 248.824 6241.21 248.824 Q6239.04 248.824 6236.77 248.454 Q6234.52 248.084 6232.12 247.343 L6232.12 242.644 Q6234.2 243.778 6236.42 244.334 Q6238.65 244.889 6241.12 244.889 Q6245.13 244.889 6247.46 242.783 Q6249.8 240.676 6249.8 237.065 Q6249.8 233.454 6247.46 231.348 Q6245.13 229.241 6241.12 229.241 Q6239.25 229.241 6237.37 229.658 Q6235.52 230.074 6233.58 230.954 L6233.58 213.593 Z" fill="#000000" fill-rule="nonzero" fill-opacity="1" /><path clip-path="url(#clip510)" d="M6262.42 212.181 L6266.12 212.181 Q6269.59 217.644 6271.31 222.875 Q6273.04 228.107 6273.04 233.269 Q6273.04 238.454 6271.31 243.709 Q6269.59 248.963 6266.12 254.403 L6262.42 254.403 Q6265.5 249.102 6267 243.871 Q6268.53 238.616 6268.53 233.269 Q6268.53 227.922 6267 222.713 Q6265.5 217.505 6262.42 212.181 Z" fill="#000000" fill-rule="nonzero" fill-opacity="1" /><polyline clip-path="url(#clip510)" style="stroke:#e26f46; stroke-linecap:round; stroke-linejoin:round; stroke-width:4; stroke-opacity:1; fill:none" points="5287.99,282.713 5707.56,282.713 "/>
<path clip-path="url(#clip510)" d="M5803.05 295.062 L5803.05 285.78 L5795.41 285.78 L5795.41 281.938 L5807.68 281.938 L5807.68 296.775 Q5804.97 298.697 5801.7 299.692 Q5798.44 300.664 5794.74 300.664 Q5786.63 300.664 5782.05 295.942 Q5777.49 291.197 5777.49 282.748 Q5777.49 274.276 5782.05 269.553 Q5786.63 264.808 5794.74 264.808 Q5798.12 264.808 5801.15 265.641 Q5804.2 266.475 5806.77 268.095 L5806.77 273.072 Q5804.18 270.873 5801.26 269.762 Q5798.35 268.651 5795.13 268.651 Q5788.79 268.651 5785.59 272.192 Q5782.42 275.734 5782.42 282.748 Q5782.42 289.738 5785.59 293.28 Q5788.79 296.822 5795.13 296.822 Q5797.61 296.822 5799.55 296.405 Q5801.49 295.965 5803.05 295.062 Z" fill="#000000" fill-rule="nonzero" fill-opacity="1" /><path clip-path="url(#clip510)" d="M5816.22 265.433 L5838.07 265.433 L5838.07 269.368 L5820.89 269.368 L5820.89 279.6 L5837.35 279.6 L5837.35 283.535 L5820.89 283.535 L5820.89 296.058 L5838.49 296.058 L5838.49 299.993 L5816.22 299.993 L5816.22 265.433 Z" fill="#000000" fill-rule="nonzero" fill-opacity="1" /><path clip-path="url(#clip510)" d="M5855.08 299.993 L5841.89 265.433 L5846.77 265.433 L5857.72 294.53 L5868.69 265.433 L5873.55 265.433 L5860.38 299.993 L5855.08 299.993 Z" fill="#000000" fill-rule="nonzero" fill-opacity="1" /><path clip-path="url(#clip510)" d="M5888.65 264.021 Q5885.55 269.345 5884.04 274.553 Q5882.54 279.762 5882.54 285.109 Q5882.54 290.456 5884.04 295.711 Q5885.57 300.942 5888.65 306.243 L5884.94 306.243 Q5881.47 300.803 5879.74 295.549 Q5878.02 290.294 5878.02 285.109 Q5878.02 279.947 5879.74 274.715 Q5881.45 269.484 5884.94 264.021 L5888.65 264.021 Z" fill="#000000" fill-rule="nonzero" fill-opacity="1" /><path clip-path="url(#clip510)" d="M5910.36 269.507 L5898.55 287.956 L5910.36 287.956 L5910.36 269.507 M5909.13 265.433 L5915.01 265.433 L5915.01 287.956 L5919.94 287.956 L5919.94 291.845 L5915.01 291.845 L5915.01 299.993 L5910.36 299.993 L5910.36 291.845 L5894.76 291.845 L5894.76 287.331 L5909.13 265.433 Z" fill="#000000" fill-rule="nonzero" fill-opacity="1" /><path clip-path="url(#clip510)" d="M5927.67 294.113 L5932.56 294.113 L5932.56 299.993 L5927.67 299.993 L5927.67 294.113 Z" fill="#000000" fill-rule="nonzero" fill-opacity="1" /><path clip-path="url(#clip510)" d="M5942.79 265.433 L5961.15 265.433 L5961.15 269.368 L5947.07 269.368 L5947.07 277.84 Q5948.09 277.493 5949.11 277.331 Q5950.13 277.146 5951.15 277.146 Q5956.93 277.146 5960.31 280.317 Q5963.69 283.488 5963.69 288.905 Q5963.69 294.484 5960.22 297.586 Q5956.75 300.664 5950.43 300.664 Q5948.25 300.664 5945.98 300.294 Q5943.74 299.924 5941.33 299.183 L5941.33 294.484 Q5943.42 295.618 5945.64 296.174 Q5947.86 296.729 5950.34 296.729 Q5954.34 296.729 5956.68 294.623 Q5959.02 292.516 5959.02 288.905 Q5959.02 285.294 5956.68 283.188 Q5954.34 281.081 5950.34 281.081 Q5948.46 281.081 5946.59 281.498 Q5944.73 281.914 5942.79 282.794 L5942.79 265.433 Z" fill="#000000" fill-rule="nonzero" fill-opacity="1" /><path clip-path="url(#clip510)" d="M5973.39 294.113 L5978.28 294.113 L5978.28 298.095 L5974.48 305.502 L5971.49 305.502 L5973.39 298.095 L5973.39 294.113 Z" fill="#000000" fill-rule="nonzero" fill-opacity="1" /><path clip-path="url(#clip510)" d="M6003.85 296.058 L6011.49 296.058 L6011.49 269.692 L6003.18 271.359 L6003.18 267.1 L6011.45 265.433 L6016.12 265.433 L6016.12 296.058 L6023.76 296.058 L6023.76 299.993 L6003.85 299.993 L6003.85 296.058 Z" fill="#000000" fill-rule="nonzero" fill-opacity="1" /><path clip-path="url(#clip510)" d="M6033.21 294.113 L6038.09 294.113 L6038.09 299.993 L6033.21 299.993 L6033.21 294.113 Z" fill="#000000" fill-rule="nonzero" fill-opacity="1" /><path clip-path="url(#clip510)" d="M6048.32 265.433 L6066.68 265.433 L6066.68 269.368 L6052.6 269.368 L6052.6 277.84 Q6053.62 277.493 6054.64 277.331 Q6055.66 277.146 6056.68 277.146 Q6062.47 277.146 6065.85 280.317 Q6069.22 283.488 6069.22 288.905 Q6069.22 294.484 6065.75 297.586 Q6062.28 300.664 6055.96 300.664 Q6053.79 300.664 6051.52 300.294 Q6049.27 299.924 6046.86 299.183 L6046.86 294.484 Q6048.95 295.618 6051.17 296.174 Q6053.39 296.729 6055.87 296.729 Q6059.87 296.729 6062.21 294.623 Q6064.55 292.516 6064.55 288.905 Q6064.55 285.294 6062.21 283.188 Q6059.87 281.081 6055.87 281.081 Q6053.99 281.081 6052.12 281.498 Q6050.27 281.914 6048.32 282.794 L6048.32 265.433 Z" fill="#000000" fill-rule="nonzero" fill-opacity="1" /><path clip-path="url(#clip510)" d="M6078.92 294.113 L6083.81 294.113 L6083.81 298.095 L6080.01 305.502 L6077.03 305.502 L6078.92 298.095 L6078.92 294.113 Z" fill="#000000" fill-rule="nonzero" fill-opacity="1" /><path clip-path="url(#clip510)" d="M6118.58 268.512 Q6114.97 268.512 6113.14 272.076 Q6111.33 275.618 6111.33 282.748 Q6111.33 289.854 6113.14 293.419 Q6114.97 296.961 6118.58 296.961 Q6122.21 296.961 6124.02 293.419 Q6125.84 289.854 6125.84 282.748 Q6125.84 275.618 6124.02 272.076 Q6122.21 268.512 6118.58 268.512 M6118.58 264.808 Q6124.39 264.808 6127.44 269.414 Q6130.52 273.998 6130.52 282.748 Q6130.52 291.475 6127.44 296.081 Q6124.39 300.664 6118.58 300.664 Q6112.77 300.664 6109.69 296.081 Q6106.63 291.475 6106.63 282.748 Q6106.63 273.998 6109.69 269.414 Q6112.77 264.808 6118.58 264.808 Z" fill="#000000" fill-rule="nonzero" fill-opacity="1" /><path clip-path="url(#clip510)" d="M6138.74 294.113 L6143.62 294.113 L6143.62 299.993 L6138.74 299.993 L6138.74 294.113 Z" fill="#000000" fill-rule="nonzero" fill-opacity="1" /><path clip-path="url(#clip510)" d="M6167.97 281.359 Q6171.33 282.076 6173.21 284.345 Q6175.1 286.613 6175.1 289.947 Q6175.1 295.062 6171.59 297.863 Q6168.07 300.664 6161.59 300.664 Q6159.41 300.664 6157.09 300.224 Q6154.8 299.808 6152.35 298.951 L6152.35 294.437 Q6154.29 295.572 6156.61 296.15 Q6158.92 296.729 6161.45 296.729 Q6165.84 296.729 6168.14 294.993 Q6170.45 293.257 6170.45 289.947 Q6170.45 286.891 6168.3 285.178 Q6166.17 283.442 6162.35 283.442 L6158.32 283.442 L6158.32 279.6 L6162.53 279.6 Q6165.98 279.6 6167.81 278.234 Q6169.64 276.845 6169.64 274.252 Q6169.64 271.59 6167.74 270.178 Q6165.87 268.743 6162.35 268.743 Q6160.43 268.743 6158.23 269.16 Q6156.03 269.576 6153.39 270.456 L6153.39 266.289 Q6156.05 265.549 6158.37 265.178 Q6160.71 264.808 6162.77 264.808 Q6168.09 264.808 6171.19 267.239 Q6174.29 269.646 6174.29 273.766 Q6174.29 276.637 6172.65 278.627 Q6171.01 280.595 6167.97 281.359 Z" fill="#000000" fill-rule="nonzero" fill-opacity="1" /><path clip-path="url(#clip510)" d="M6182.7 264.021 L6186.4 264.021 Q6189.87 269.484 6191.59 274.715 Q6193.32 279.947 6193.32 285.109 Q6193.32 290.294 6191.59 295.549 Q6189.87 300.803 6186.4 306.243 L6182.7 306.243 Q6185.78 300.942 6187.28 295.711 Q6188.81 290.456 6188.81 285.109 Q6188.81 279.762 6187.28 274.553 Q6185.78 269.345 6182.7 264.021 Z" fill="#000000" fill-rule="nonzero" fill-opacity="1" /></svg>
